<svg width="512" height="512" viewBox="0 0 512 512" xmlns="http://www.w3.org/2000/svg">
  <defs>
    <radialGradient id="igr" cx="33%" cy="100%" r="100%">
      <stop offset="0%" stop-color="#fdf497"/>
      <stop offset="10%" stop-color="#fdf497"/>
      <stop offset="40%" stop-color="#fd5949"/>
      <stop offset="60%" stop-color="#d6249f"/>
      <stop offset="100%" stop-color="#285AEB"/>
    </radialGradient>
  </defs>
  <circle cx="256" cy="256" r="240" fill="url(#igr)" />
  <path fill="#fff" d="M256 164c-50 0-92 41-92 92s41 92 92 92 92-41 92-92-41-92-92-92zm0 151c-33 0-59-26-59-59s26-59 59-59 59 26 59 59-26 59-59 59zm94-160c0 11-9 20-20 20s-20-9-20-20 9-20 20-20 20 9 20 20z"/>
</svg>